HIERARCHY
ROOT Hips
{
	OFFSET 0.00000 0.00000 0.00000
	CHANNELS 6 Xposition Yposition Zposition Zrotation Yrotation Xrotation 
	JOINT LHipJoint
	{
		OFFSET 0 0 0
		CHANNELS 3 Zrotation Yrotation Xrotation
		JOINT LeftHip
		{
			OFFSET 1.83091 -1.65485 0.80491
			CHANNELS 3 Zrotation Yrotation Xrotation
			JOINT LeftKnee
			{
				OFFSET 2.11983 -5.82419 0.00000
				CHANNELS 3 Zrotation Yrotation Xrotation
				JOINT LeftAnkle
				{
					OFFSET 2.66794 -7.33011 0.00000
					CHANNELS 3 Zrotation Yrotation Xrotation
					JOINT LeftToe
					{
						OFFSET 0.15587 -0.42826 1.82520
						CHANNELS 3 Zrotation Yrotation Xrotation
						End Site
						{
							OFFSET 0.00000 -0.00000 0.94802
						}
					}
				}
			}
		}
	}
	JOINT RHipJoint
	{
		OFFSET 0 0 0
		CHANNELS 3 Zrotation Yrotation Xrotation
		JOINT RightHip
		{
			OFFSET -1.96593 -1.65485 0.80491
			CHANNELS 3 Zrotation Yrotation Xrotation
			JOINT RightKnee
			{
				OFFSET -2.00526 -5.50940 0.00000
				CHANNELS 3 Zrotation Yrotation Xrotation
				JOINT RightAnkle
				{
					OFFSET -2.64167 -7.25794 0.00000
					CHANNELS 3 Zrotation Yrotation Xrotation
					JOINT RightToe
					{
						OFFSET -0.19578 -0.53789 1.94104
						CHANNELS 3 Zrotation Yrotation Xrotation
						End Site
						{
							OFFSET -0.00000 -0.00000 1.01373
						}
					}
				}
			}
		}
	}
	JOINT lowerback
	{
		OFFSET 0 0 0
		CHANNELS 3 Zrotation Yrotation Xrotation
		JOINT Chest
		{
			OFFSET 0.01139 2.01356 -0.24266
			CHANNELS 3 Zrotation Yrotation Xrotation
			JOINT Chest2
			{
				OFFSET 0.00315 2.01402 -0.18659
				CHANNELS 3 Zrotation Yrotation Xrotation
				JOINT lowerneck
				{
					OFFSET 0 0 0
					CHANNELS 3 Zrotation Yrotation Xrotation
					JOINT Neck
					{
						OFFSET -0.15348 1.85288 0.32547
						CHANNELS 3 Zrotation Yrotation Xrotation
						JOINT Head
						{
							OFFSET 0.23013 1.84255 -0.51894
							CHANNELS 3 Zrotation Yrotation Xrotation
							End Site
							{
								OFFSET 0.08244 1.94374 -0.22179
							}
						}
					}
				}
				JOINT LeftCollar
				{
					OFFSET 0 0 0
					CHANNELS 3 Zrotation Yrotation Xrotation
					JOINT LeftShoulder
					{
						OFFSET 3.63468 1.26528 -0.10015
CHANNELS 3 Zrotation Xrotation Yrotation
						JOINT LeftElbow
						{
OFFSET 0 -5.535930 -0.000000
CHANNELS 3 Zrotation Xrotation Yrotation
							JOINT LeftWrist
							{
OFFSET 0 -3.133450 0.000000
CHANNELS 3 Zrotation Xrotation Yrotation
								JOINT lhand
								{
									OFFSET 0 0 0
CHANNELS 3 Zrotation Xrotation Yrotation
									JOINT LFingers
									{
OFFSET 0 -0.713370 0.000000
CHANNELS 3 Zrotation Xrotation Yrotation
										End Site
										{
OFFSET 0 -0.575140 0.000000
										}
									}
								}
								JOINT LThumb
								{
OFFSET 0 0.000000 0.000000
CHANNELS 3 Zrotation Xrotation Yrotation
									End Site
									{
OFFSET 0 -0.583920 0.583920
									}
								}
							}
						}
					}
				}
				JOINT RightCollar
				{
					OFFSET 0 0 0
					CHANNELS 3 Zrotation Yrotation Xrotation
					JOINT RightShoulder
					{
						OFFSET -3.31009 1.23247 0.08205
CHANNELS 3 Zrotation Xrotation Yrotation
						JOINT RightElbow
						{
OFFSET 0 -5.468500 0.000000
CHANNELS 3 Zrotation Xrotation Yrotation
							JOINT RightWrist
							{
OFFSET 0 -3.224110 -0.000000
CHANNELS 3 Zrotation Xrotation Yrotation
								JOINT rhand
								{
									OFFSET 0 0 0
CHANNELS 3 Zrotation Xrotation Yrotation
									JOINT RFingers
									{
OFFSET 0 -0.745280 0.000000
CHANNELS 3 Zrotation Xrotation Yrotation
										End Site
										{
OFFSET 0 -0.600860 0.000000
										}
									}
								}
								JOINT RThumb
								{
OFFSET 0 0.000000 0.000000
CHANNELS 3 Zrotation Xrotation Yrotation
									End Site
									{
OFFSET 0 -0.610040 0.610040
									}
								}
							}
						}
					}
				}
			}
		}
	}
}
MOTION
Frames: 4
Frame Time: 0.008333333333333333
9.574000 15.858100 -44.150100 0.508000 -3.600400 8.157400 0.000000 0.000000 0.000000 -19.508100 -2.053000 -20.902400 5.206200 13.612300 41.706000 1.184600 -13.015000 -20.187100 0.093000 -1.967200 -5.415100 0.000000 0.000000 0.000000 24.263500 6.976100 -14.239700 -2.412300 -9.676600 27.935700 -1.771000 6.155800 -23.938700 -0.398900 4.055200 -11.232100 0.928600 -0.597000 -2.779200 -0.404100 -0.820600 0.452000 -0.971500 -0.396700 2.002300 -14.458400 -5.962200 -20.625100 6.296300 -5.226700 20.242600 3.830100 -2.794000 10.476300 0.000000 0.000000 0.000000 6.988700 2.067100 -29.844600 14.925100 -24.041600 3.195400 15.240300 12.072200 -35.798300 0.000000 0.000000 0.000000 -7.125000 0.000000 0.000000 -23.703800 65.272300 11.919400 0.000000 0.000000 0.000000 -8.640700 8.313600 51.102800 -21.414900 -32.309500 -6.270300 -17.607100 -16.938100 -20.248600 0.000000 0.000000 0.000000 7.125000 0.000000 -0.000000 6.948800 8.947600 5.827700
9.561549 15.857890 -44.136040 0.437840 -3.609354 8.192515 0.000000 0.000000 0.000000 -19.287618 -2.106582 -21.624143 5.493135 13.915743 42.906480 1.108355 -12.943651 -19.598471 0.062362 -1.592198 -4.380331 0.000000 0.000000 0.000000 24.369474 6.826197 -14.092455 -2.362915 -9.584056 27.640092 -1.750645 6.633208 -23.763196 -0.282503 3.389557 -9.368145 1.127957 -0.488508 -2.718134 -0.490978 -0.681120 0.718299 -1.167360 -0.320874 2.241809 -14.302761 -6.166524 -21.553685 6.343866 -5.428855 20.397399 3.780715 -2.855906 10.722314 0.000000 0.000000 0.000000 7.197221 1.383969 -29.968202 14.870119 -23.964865 3.173016 16.125166 11.751829 -31.174191 0.000000 0.000000 0.000000 -7.125000 0.000000 0.000000 -18.662090 61.192891 7.720446 0.000000 0.000000 0.000000 -8.467784 7.766802 50.885046 -21.434626 -32.332164 -6.280792 -11.232074 -13.681512 -13.292920 0.000000 0.000000 0.000000 7.125000 0.000000 0.000000 11.252609 16.464068 7.440745
9.549297 15.856523 -44.122539 0.332968 -3.599873 8.257555 0.000000 0.000000 0.000000 -19.032144 -2.146039 -22.431711 5.800139 14.228203 44.167289 1.033705 -12.747096 -18.977803 0.042138 -1.317226 -3.622227 0.000000 0.000000 0.000000 24.508485 6.704663 -13.997240 -2.319994 -9.502844 27.381391 -1.719995 6.880115 -23.530914 -0.240560 3.155789 -8.712835 1.241290 -0.470987 -2.504052 -0.446785 -0.658945 0.531616 -1.180917 -0.312160 1.929861 -14.303171 -6.067649 -21.135771 6.366095 -5.360330 20.261967 3.802831 -2.825802 10.589000 0.000000 0.000000 0.000000 7.130552 1.635971 -29.632436 14.881532 -23.980817 3.177644 15.553370 12.053178 -30.135441 0.000000 0.000000 0.000000 -7.125000 0.000000 0.000000 -18.227135 60.110318 6.902246 0.000000 0.000000 0.000000 -8.557887 8.131275 50.985014 -21.517074 -32.426767 -6.325000 -13.390785 -15.052506 -15.719247 0.000000 0.000000 0.000000 7.125000 0.000000 0.000000 9.961263 13.726200 6.804238
9.537373 15.854620 -44.108897 0.201301 -3.573516 8.349072 0.000000 0.000000 0.000000 -18.751783 -2.177961 -23.306655 6.122751 14.545021 45.470057 0.963617 -12.423613 -18.348577 0.033568 -1.178450 -3.240104 0.000000 0.000000 0.000000 24.677244 6.582343 -13.945249 -2.280661 -9.427536 27.142242 -1.683996 6.925725 -23.273886 -0.262806 3.293026 -9.095977 1.327078 -0.503601 -2.240770 -0.328708 -0.703360 0.227058 -1.104819 -0.338871 1.468998 -14.415837 -5.895576 -20.445580 6.393907 -5.196085 20.089560 3.863402 -2.763508 10.386576 0.000000 0.000000 0.000000 6.907965 2.120808 -29.038741 14.928134 -24.045891 3.196598 12.966813 12.153526 -32.802404 0.000000 0.000000 0.000000 -7.125000 0.000000 0.000000 -23.673787 61.787036 10.522848 0.000000 0.000000 0.000000 -8.788657 8.720514 51.226838 -21.617350 -32.541825 -6.378811 -20.951968 -19.400029 -24.094431 0.000000 0.000000 0.000000 7.125000 0.000000 0.000000 5.142414 4.477194 4.740602
